<?xml version="1.0"?>
<svg xmlns:rdf="http://www.w3.org/1999/02/22-rdf-syntax-ns#" xmlns="http://www.w3.org/2000/svg" xmlns:cc="http://web.resource.org/cc/" xmlns:xlink="http://www.w3.org/1999/xlink" xmlns:dc="http://purl.org/dc/elements/1.1/" id="svg2" viewBox="0 0 303.77 414.8" version="1.0">
  <defs id="defs4">
    <radialGradient id="radialGradient2822" gradientUnits="userSpaceOnUse" cy="442.29" cx="338.18" gradientTransform="matrix(1 0 0 .31757 0 301.83)" r="77.238">
      <stop id="stop2818" stop-color="#00cdc8" offset="0"/>
      <stop id="stop2820" stop-color="#00cdc8" stop-opacity="0" offset="1"/>
    </radialGradient>
    <linearGradient id="linearGradient2832" y2="420.51" gradientUnits="userSpaceOnUse" x2="415.41" gradientTransform="matrix(.99366 .11243 -.11243 .99366 -72.305 -288.83)" y1="465.39" x1="278.68">
      <stop id="stop2828" stop-color="#00cdc8" offset="0"/>
      <stop id="stop2830" stop-color="#00cdc8" stop-opacity="0" offset="1"/>
    </linearGradient>
    <radialGradient id="radialGradient2842" gradientUnits="userSpaceOnUse" cy="680.97" cx="402.11" gradientTransform="matrix(1.337 .16450 -.065266 .53045 -242.48 5.6613)" r="50.098">
      <stop id="stop2838" stop-color="#00cdc8" offset="0"/>
      <stop id="stop2840" stop-color="#00cdc8" stop-opacity="0" offset="1"/>
    </radialGradient>
    <linearGradient id="linearGradient2854" y2="355.63" gradientUnits="userSpaceOnUse" x2="323.63" gradientTransform="matrix(.99366 .11243 -.11243 .99366 -72.305 -288.83)" y1="355.63" x1="234.22">
      <stop id="stop2850" stop-color="#00dcc8" offset="0"/>
      <stop id="stop2852" stop-color="#00dcc8" stop-opacity="0" offset="1"/>
    </linearGradient>
  </defs>
  <g id="layer1" transform="translate(-73.383 -64.635)">
    <path id="path1872" d="m582.86 353.79a187.14 32.857 0 1 1 -374.29 0 187.14 32.857 0 1 1 374.29 0z" stroke-opacity=".9207" transform="matrix(.75117 .084995 -.14234 1.2579 -12.17 -367.97)" stroke="#128ba6" stroke-width="3.6273" fill="none"/>
    <path id="path2764" d="m97.099 105.14l103.24 140.25" stroke-opacity=".9207" stroke="#128ba6" stroke-width="3.5484" fill="none"/>
    <path id="path2768" d="m370.35 136.06l-132.24 113.6" stroke-opacity=".9207" stroke="#128ba6" stroke-width="3.5484" fill="none"/>
    <path id="path2784" d="m181.99 402.49c-2.7 7.23 40.49 14 39.08 3.29" stroke-opacity=".9207" stroke="#128ba6" stroke-width="3.5484" fill="none"/>
    <path id="path2788" d="m473.93 683.84a123.83 42.749 0 1 1 -247.65 0 123.83 42.749 0 1 1 247.65 0z" stroke-opacity=".9207" transform="matrix(.99364 .11243 -.11276 .99655 -72.194 -289.76)" stroke="#128ba6" stroke-width="3.5417" fill="none"/>
    <path id="path2808" d="m75.27 419.91c-3.084 19.61 46.78 49.55 117.19 55.78s119.69-1.95 128.67-27.83" stroke-opacity=".9207" stroke="#128ba6" stroke-width="3.5015" fill="none"/>
    <path id="path2814" d="m415.41 442.29a77.238 24.528 0 1 1 -154.47 0 77.238 24.528 0 1 1 154.47 0z" stroke-width="0" fill="url(#radialGradient2822)" transform="matrix(1.1145 .12611 -.10765 .95138 -102 -290.06)"/>
    <path id="path2834" d="m252.14 405.23c62.85 14.68 59.66 37.75 57.12 41.67-2.55 3.91-28.81 31.73-138.99 12.99-67.95-11.55 89.01-8.2 98.32-9.85 34.83-6.14 31.22-27.87-16.45-44.81z" stroke-width="0" fill="url(#radialGradient2842)" fill-rule="evenodd"/>
    <path id="path2844" d="m392.45 447.51a21.919 27.66 0 1 1 -43.84 0 21.919 27.66 0 1 1 43.84 0z" fill="#00dcc8" transform="matrix(.74547 .66654 -.66654 .74547 271.79 -394.16)"/>
    <path id="path2824" d="m156.11 171.09l50.81 70.88s14.62 10.05 26.04 1.89c11.43-8.16 58.67-54.28 58.67-54.28s-30.19 12.34-67.2 7.1c-37-5.24-64.07-16.7-68.32-25.59z" fill="url(#linearGradient2832)" fill-rule="evenodd"/>
    <path id="path2846" d="m127.19 111.1c-19.8-10.65-3.04-38.161 65.53-31.453s-75.04 4.113-65.53 31.453z" stroke-width="0" fill="url(#linearGradient2854)" fill-rule="evenodd"/>
    <rect id="rect2858" transform="rotate(6.4554)" height="7.1807" width="32.124" y="359.66" x="230.15" fill="#fff"/>
    <path id="path2778" d="m182.24 402.63c12.46-38.96 39.9-128.69 17.99-157.41" stroke-opacity=".9207" stroke="#128ba6" stroke-width="3.5484" fill="none"/>
    <path id="path2782" d="m221.26 405.92c-3.44-40.76-10.78-133.12 16.99-156.22" stroke-opacity=".9207" stroke="#128ba6" stroke-width="3.5484" fill="none"/>
    <path id="path2860" d="m386.58 421.4a3.5729 5.3593 0 1 1 -7.14 0 3.5729 5.3593 0 1 1 7.14 0z" fill="#f4d7d7" transform="matrix(.74243 -.66992 .66992 .74243 -302.17 113.49)"/>
    <path id="path2868" d="m270.87 177.53c0.41 0.32 0.54 0.81 0.79 1.23 0.21 0.51 0.36 1.03 0.53 1.55 0.18 0.66 0.24 1.33 0.31 2.01 0.03 0.72-0.05 1.44-0.12 2.17-0.01 0.74-0.25 1.43-0.46 2.13-0.25 0.64-0.61 1.21-0.93 1.81-0.36 0.65-0.88 1.17-1.37 1.71-0.58 0.7-1.27 1.28-1.94 1.88-0.38 0.35-0.83 0.61-1.26 0.91l-5.08 1.37c0.44-0.26 0.93-0.46 1.3-0.84 0.68-0.56 1.39-1.08 1.95-1.78 0.48-0.52 0.98-1.03 1.4-1.61 0.32-0.57 0.67-1.14 0.94-1.74 0.22-0.65 0.53-1.28 0.52-1.99 0.06-0.7 0.16-1.39 0.15-2.1-0.08-0.63-0.1-1.27-0.29-1.88-0.16-0.52-0.31-1.03-0.52-1.53-0.15-0.17-0.25-0.78-0.57-0.66l4.65-2.64z" fill="#f2f2f2"/>
  </g>
  <metadata>
    <rdf:RDF>
      <cc:Work>
        <dc:format>image/svg+xml</dc:format>
        <dc:type rdf:resource="http://purl.org/dc/dcmitype/StillImage"/>
        <cc:license rdf:resource="http://creativecommons.org/licenses/publicdomain/"/>
        <dc:publisher>
          <cc:Agent rdf:about="http://openclipart.org/">
            <dc:title>Openclipart</dc:title>
          </cc:Agent>
        </dc:publisher>
      </cc:Work>
      <cc:License rdf:about="http://creativecommons.org/licenses/publicdomain/">
        <cc:permits rdf:resource="http://creativecommons.org/ns#Reproduction"/>
        <cc:permits rdf:resource="http://creativecommons.org/ns#Distribution"/>
        <cc:permits rdf:resource="http://creativecommons.org/ns#DerivativeWorks"/>
      </cc:License>
    </rdf:RDF>
  </metadata>
</svg>
